<!DOCTYPE svg PUBLIC "-//W3C//DTD SVG 1.1//EN" "http://www.w3.org/Graphics/SVG/1.1/DTD/svg11.dtd">
<svg xmlns="http://www.w3.org/2000/svg" xmlns:xlink="http://www.w3.org/1999/xlink" version="1.1" width="131px" height="140px" viewBox="-0.5 -0.5 131 140"><defs/><g><path d="M 42 18 C 42 -3.33 102 -3.33 102 18 L 102 66 C 102 87.33 42 87.33 42 66 Z" fill="#000000" stroke="#ffffff" stroke-width="5" stroke-miterlimit="10" pointer-events="none"/><path d="M 42 18 C 42 34 102 34 102 18" fill="none" stroke="#ffffff" stroke-width="5" stroke-miterlimit="10" pointer-events="none"/><path d="M 68 52 C 68 30.67 128 30.67 128 52 L 128 100 C 128 121.33 68 121.33 68 100 Z" fill="#000000" stroke="#ffffff" stroke-width="5" stroke-miterlimit="10" pointer-events="none"/><path d="M 68 52 C 68 68 128 68 128 52" fill="none" stroke="#ffffff" stroke-width="5" stroke-miterlimit="10" pointer-events="none"/><path d="M 2 43 C 2 21.67 62 21.67 62 43 L 62 91 C 62 112.33 2 112.33 2 91 Z" fill="#000000" stroke="#ffffff" stroke-width="5" stroke-miterlimit="10" pointer-events="none"/><path d="M 2 43 C 2 59 62 59 62 43" fill="none" stroke="#ffffff" stroke-width="5" stroke-miterlimit="10" pointer-events="none"/><path d="M 22 73 C 22 51.67 82 51.67 82 73 L 82 121 C 82 142.33 22 142.33 22 121 Z" fill="#000000" stroke="#ffffff" stroke-width="5" stroke-miterlimit="10" pointer-events="none"/><path d="M 22 73 C 22 89 82 89 82 73" fill="none" stroke="#ffffff" stroke-width="5" stroke-miterlimit="10" pointer-events="none"/></g></svg>