<!DOCTYPE svg PUBLIC "-//W3C//DTD SVG 1.1//EN" "http://www.w3.org/Graphics/SVG/1.1/DTD/svg11.dtd">
<svg xmlns="http://www.w3.org/2000/svg" xmlns:xlink="http://www.w3.org/1999/xlink" version="1.1" width="125px" height="125px" viewBox="-0.5 -0.5 125 125"><defs/><g><path d="M 62 58 C 62 74 122 74 122 58" fill="none" stroke="#000000" stroke-width="5" stroke-miterlimit="10" pointer-events="none"/><path d="M 62 58 C 62 36.67 122 36.67 122 58 L 122 106 C 122 127.33 62 127.33 62 106 Z" fill="none" stroke="#000000" stroke-width="5" stroke-miterlimit="10" pointer-events="none"/><path d="M 2 42 C 2 58 62 58 62 42" fill="none" stroke="#000000" stroke-width="5" stroke-miterlimit="10" pointer-events="none"/><path d="M 2 42 C 2 20.67 62 20.67 62 42 L 62 90 C 62 111.33 2 111.33 2 90 Z" fill="none" stroke="#000000" stroke-width="5" stroke-miterlimit="10" pointer-events="none"/><ellipse cx="71" cy="15" rx="28" ry="13" fill="none" stroke="#000000" stroke-width="5" pointer-events="none"/><path d="M 99 45 L 99 15" fill="none" stroke="#000000" stroke-width="5" stroke-miterlimit="10" pointer-events="none"/><path d="M 43 26 L 43 17" fill="none" stroke="#000000" stroke-width="5" stroke-miterlimit="10" pointer-events="none"/></g></svg>