<?xml version="1.0" standalone="no"?>
<!DOCTYPE svg PUBLIC "-//W3C//DTD SVG 20010904//EN"
 "http://www.w3.org/TR/2001/REC-SVG-20010904/DTD/svg10.dtd">
<svg version="1.0" xmlns="http://www.w3.org/2000/svg"
 width="425.000000pt" height="425.000000pt" viewBox="0 0 425.000000 425.000000"
 preserveAspectRatio="xMidYMid meet">
<metadata>
Created by potrace 1.15, written by Peter Selinger 2001-2017
</metadata>
<g transform="translate(0.000000,425.000000) scale(0.100000,-0.100000)"
fill="#000000" stroke="none">
<path d="M0 2125 l0 -2125 2125 0 2125 0 0 2125 0 2125 -2125 0 -2125 0 0
-2125z m2155 1920 c25 -24 25 -26 25 -215 0 -189 0 -191 -25 -215 -16 -17 -35
-25 -60 -25 -25 0 -44 8 -60 25 -25 24 -25 26 -25 215 0 189 0 191 25 215 33
34 87 34 120 0z m-1093 -613 c118 -119 128 -131 128 -166 0 -21 -4 -45 -10
-55 -12 -24 -64 -45 -92 -37 -13 3 -81 64 -152 135 -117 117 -130 134 -130
165 0 51 36 86 87 86 38 0 47 -7 169 -128z m2292 77 c49 -58 40 -78 -91 -212
-65 -66 -133 -126 -150 -133 -68 -29 -131 28 -112 101 6 20 52 74 132 153 112
110 127 122 160 122 27 0 41 -7 61 -31z m-999 -133 c121 -32 295 -115 389
-186 433 -329 568 -905 325 -1391 -20 -41 -81 -131 -134 -200 -99 -126 -167
-233 -231 -362 -20 -40 -45 -82 -57 -94 l-20 -23 -537 0 c-467 0 -538 2 -558
15 -12 9 -46 64 -77 123 -61 120 -140 241 -245 376 -112 144 -171 275 -210
465 -46 227 -11 480 96 694 161 320 448 535 806 603 117 22 330 12 453 -20z
m1440 -970 c60 -26 75 -94 29 -140 l-27 -26 -187 0 c-185 0 -187 0 -214 25
-49 46 -27 132 39 148 11 3 89 5 173 6 111 1 162 -3 187 -13z m-3022 -16 c30
-24 40 -60 27 -96 -20 -51 -30 -53 -235 -53 -134 0 -195 3 -206 12 -44 34 -47
91 -7 135 21 21 27 22 208 22 172 0 189 -2 213 -20z m2484 -1033 c95 -95 143
-150 143 -164 0 -66 -60 -114 -117 -92 -38 14 -262 236 -279 277 -12 27 -12
37 0 66 16 40 39 55 81 56 25 0 52 -23 172 -143z m-2080 68 c26 -55 12 -80
-126 -217 -118 -118 -131 -128 -165 -128 -58 0 -93 42 -86 105 2 27 237 267
275 281 42 16 83 0 102 -41z m1336 -500 c69 -34 95 -116 55 -175 -47 -70 -48
-70 -481 -70 -410 0 -429 2 -470 48 -54 60 -27 171 48 202 11 5 199 9 418 9
339 1 404 -1 430 -14z m-156 -449 c-21 -132 -164 -239 -298 -223 -102 12 -201
91 -233 185 -27 77 -47 72 260 72 l277 0 -6 -34z"/>
<path d="M1938 3144 c-247 -44 -457 -192 -587 -411 -124 -210 -148 -455 -70
-698 34 -108 64 -159 195 -331 54 -72 119 -167 143 -210 24 -44 50 -89 58
-102 l14 -22 397 2 397 3 36 67 c53 96 117 190 203 298 162 202 226 400 205
628 -12 128 -32 202 -89 317 -125 252 -367 427 -643 464 -100 14 -163 13 -259
-5z m234 -377 c23 -46 33 -56 73 -72 46 -17 50 -17 103 0 l54 17 43 -42 43
-42 -18 -54 c-18 -51 -18 -56 -2 -100 14 -37 26 -51 69 -75 l53 -30 0 -60 0
-59 -49 -25 c-41 -20 -54 -34 -71 -72 -21 -47 -21 -49 -4 -106 l18 -58 -41
-41 -41 -40 -55 21 -56 20 -45 -20 c-35 -15 -51 -31 -72 -69 l-27 -50 -62 0
-62 0 -23 50 c-19 42 -32 54 -69 71 -44 19 -45 19 -102 0 l-57 -19 -45 47 -45
46 18 52 c18 51 18 53 -2 102 -18 41 -29 53 -70 72 l-48 22 0 62 0 62 50 23
c41 19 54 32 70 68 19 43 20 47 4 104 l-17 60 40 40 41 40 52 -17 c50 -17 55
-17 105 0 47 17 55 23 79 72 l26 53 58 0 58 0 26 -53z"/>
<path d="M2027 2476 c-52 -19 -83 -50 -103 -102 -45 -118 39 -236 166 -236 58
0 101 21 137 69 24 31 28 46 28 103 0 57 -4 72 -28 103 -48 63 -129 89 -200
63z"/>
</g>
</svg>
