<?xml version="1.0" standalone="no"?>
<!DOCTYPE svg PUBLIC "-//W3C//DTD SVG 20010904//EN"
 "http://www.w3.org/TR/2001/REC-SVG-20010904/DTD/svg10.dtd">
<svg version="1.0" xmlns="http://www.w3.org/2000/svg"
 width="425.000000pt" height="425.000000pt" viewBox="0 0 425.000000 425.000000"
 preserveAspectRatio="xMidYMid meet">
<metadata>
Created by potrace 1.15, written by Peter Selinger 2001-2017
</metadata>
<g transform="translate(0.000000,425.000000) scale(0.100000,-0.100000)"
fill="#000000" stroke="none">
<path d="M2035 4045 c-25 -24 -25 -26 -25 -215 0 -189 0 -191 25 -215 16 -17
35 -25 60 -25 25 0 44 8 60 25 25 24 25 26 25 215 0 189 0 191 -25 215 -33 34
-87 34 -120 0z"/>
<path d="M830 3535 c-16 -17 -24 -37 -24 -61 0 -31 13 -48 130 -165 71 -71
139 -132 152 -135 28 -8 80 13 92 37 6 10 10 34 10 55 0 35 -10 47 -128 166
-122 121 -131 128 -169 128 -29 0 -46 -6 -63 -25z"/>
<path d="M3133 3418 c-80 -79 -126 -133 -132 -153 -19 -73 44 -130 112 -101
17 7 85 67 150 133 131 134 140 154 91 212 -20 24 -34 31 -61 31 -33 0 -48
-12 -160 -122z"/>
<path d="M1902 3396 c-358 -68 -645 -283 -806 -603 -107 -214 -142 -467 -96
-694 39 -190 98 -321 210 -465 105 -135 184 -256 245 -376 31 -59 65 -114 77
-123 20 -13 91 -15 558 -15 l537 0 20 23 c12 12 37 54 57 94 64 129 132 236
231 362 53 69 114 159 134 200 243 486 108 1062 -325 1391 -94 71 -268 154
-389 186 -123 32 -336 42 -453 20z m295 -247 c276 -37 518 -212 643 -464 57
-115 77 -189 89 -317 21 -228 -43 -426 -205 -628 -86 -108 -150 -202 -203
-298 l-36 -67 -397 -3 -397 -2 -14 22 c-8 13 -34 58 -58 102 -24 43 -89 138
-143 210 -131 172 -161 223 -195 331 -78 243 -54 488 70 698 130 219 340 367
587 411 96 18 159 19 259 5z"/>
<path d="M2004 2767 c-24 -49 -32 -55 -79 -72 -50 -17 -55 -17 -105 0 l-52 17
-41 -40 -40 -40 17 -60 c16 -57 15 -61 -4 -104 -16 -36 -29 -49 -70 -68 l-50
-23 0 -62 0 -62 48 -22 c41 -19 52 -31 70 -72 20 -49 20 -51 2 -102 l-18 -52
45 -46 45 -47 57 19 c57 19 58 19 102 0 37 -17 50 -29 69 -71 l23 -50 62 0 62
0 27 50 c21 38 37 54 72 69 l45 20 56 -20 55 -21 41 40 41 41 -18 58 c-17 57
-17 59 4 106 17 38 30 52 71 72 l49 25 0 59 0 60 -53 30 c-43 24 -55 38 -69
75 -16 44 -16 49 2 100 l18 54 -43 42 -43 42 -54 -17 c-53 -17 -57 -17 -103 0
-40 16 -50 26 -73 72 l-26 53 -58 0 -58 0 -26 -53z m168 -303 c15 -8 40 -31
55 -51 24 -31 28 -46 28 -103 0 -57 -4 -72 -28 -103 -36 -48 -79 -69 -137 -69
-93 0 -165 62 -177 151 -7 49 17 118 51 150 52 49 140 60 208 25z"/>
<path d="M3435 2413 c-66 -16 -88 -102 -39 -148 27 -25 29 -25 214 -25 l187 0
27 26 c28 29 34 70 15 106 -21 38 -68 48 -231 47 -84 -1 -162 -3 -173 -6z"/>
<path d="M352 2388 c-40 -44 -37 -101 7 -135 11 -9 72 -12 206 -12 205 0 215
2 235 53 13 36 3 72 -27 96 -24 18 -41 20 -213 20 -181 0 -187 -1 -208 -22z"/>
<path d="M3037 1489 c-11 -6 -25 -26 -33 -45 -12 -29 -12 -39 0 -66 17 -41
241 -263 279 -277 57 -22 117 26 117 92 0 14 -48 69 -143 164 -120 120 -147
143 -172 143 -17 0 -38 -5 -48 -11z"/>
<path d="M1075 1466 c-38 -14 -273 -254 -275 -281 -7 -63 28 -105 86 -105 34
0 47 10 165 128 138 137 152 162 126 217 -19 41 -60 57 -102 41z"/>
<path d="M1665 930 c-75 -31 -102 -142 -48 -202 41 -46 60 -48 470 -48 433 0
434 0 481 70 40 59 14 141 -55 175 -26 13 -91 15 -430 14 -219 0 -407 -4 -418
-9z"/>
<path d="M1810 497 c0 -7 7 -34 16 -59 32 -94 131 -173 233 -185 134 -16 277
91 298 223 l6 34 -277 0 c-222 0 -276 -3 -276 -13z"/>
</g>
</svg>
